# xmcd
# Track frame offsets:
# 150
# 10697
# 27522
# 41017
# 58375
# 72660
# 84625
# 95885
# 111022
# 125802
# 140645
#
# Disc length: 2097 seconds
# Revision: 0
# Processed by: cddbd v1.5.1PL0 Copyright (c) Steve Scherf et al.
# Submitted via: VisiTrax 2.9.10.228 - For more info visit www.synapsa.com
#
DISCID=a9082f0b
DTITLE=Various Artist - Cryin' Time Super Hits
DYEAR=1998
DGENRE=Country
TTITLE0=Willie Nelson - Blue Eyes Crying In The Rain
TTITLE1=Merle Haggard - Today I Started Loving You Again
TTITLE2=Ricky Skaggs - Crying My Heart Out Over You
TTITLE3=Vern Gosin - Chiseled In Stone
TTITLE4=Tammy Wynette - Crying In The Rain
TTITLE5=Johnny Cash - I'm So Lonesome I Could Cry
TTITLE6=Ricky Van Shelton - I've Cried My Last Terr For You
TTITLE7=Doug Stone - I'd Be Better Off On A Pine Box
TTITLE8=Rick Trevino - She Can't Say I Didn't Cry
TTITLE9=George Jones - He Stopped Loving Her Today
TTITLE10=Various Artist - Advertisement
EXTD=
EXTT0=
EXTT1=
EXTT2=
EXTT3=
EXTT4=
EXTT5=
EXTT6=
EXTT7=
EXTT8=
EXTT9=
EXTT10=
PLAYORDER=
